<svg xmlns="http://www.w3.org/2000/svg" xmlns:xlink="http://www.w3.org/1999/xlink" width="500" zoomAndPan="magnify" viewBox="0 0 375 225" height="300" preserveAspectRatio="xMidYMid meet" version="1.0"><defs><g/><clipPath id="44eb4b13cb"><path d="M 9.335938 48 L 94 48 L 94 177.429688 L 9.335938 177.429688 Z M 9.335938 48 " clip-rule="nonzero"/></clipPath><clipPath id="857de54249"><path d="M 9.335938 48 L 94 48 L 94 146 L 9.335938 146 Z M 9.335938 48 " clip-rule="nonzero"/></clipPath><clipPath id="a709d7d335"><path d="M 123 47.679688 L 148.835938 47.679688 L 148.835938 74 L 123 74 Z M 123 47.679688 " clip-rule="nonzero"/></clipPath><clipPath id="37f510d8ef"><path d="M 62 49 L 148.835938 49 L 148.835938 177 L 62 177 Z M 62 49 " clip-rule="nonzero"/></clipPath><clipPath id="bf4be2f14b"><path d="M 62 49 L 148.835938 49 L 148.835938 145 L 62 145 Z M 62 49 " clip-rule="nonzero"/></clipPath></defs><g clip-path="url(#44eb4b13cb)"><path fill="#72ffff" d="M 42.515625 54.179688 L 87.355469 99.070312 C 87.804688 99.519531 88.230469 99.992188 88.636719 100.484375 C 89.039062 100.976562 89.417969 101.488281 89.773438 102.015625 C 90.125 102.546875 90.453125 103.09375 90.753906 103.65625 C 91.054688 104.21875 91.324219 104.792969 91.570312 105.382812 C 91.8125 105.96875 92.027344 106.570312 92.210938 107.179688 C 92.394531 107.789062 92.550781 108.40625 92.675781 109.03125 C 92.800781 109.65625 92.890625 110.289062 92.953125 110.921875 C 93.015625 111.554688 93.046875 112.191406 93.046875 112.828125 C 93.046875 113.464844 93.015625 114.101562 92.953125 114.738281 C 92.890625 115.371094 92.800781 116 92.675781 116.625 C 92.550781 117.25 92.394531 117.867188 92.210938 118.476562 C 92.027344 119.085938 91.8125 119.6875 91.570312 120.277344 C 91.324219 120.863281 91.054688 121.441406 90.753906 122.003906 C 90.453125 122.566406 90.125 123.109375 89.773438 123.640625 C 89.417969 124.171875 89.039062 124.683594 88.636719 125.175781 C 88.230469 125.667969 87.804688 126.140625 87.355469 126.589844 L 42.515625 171.476562 C 30.269531 183.734375 9.324219 175.046875 9.335938 157.703125 L 9.335938 67.925781 C 9.324219 50.609375 30.269531 41.921875 42.515625 54.179688 Z M 42.515625 54.179688 " fill-opacity="1" fill-rule="nonzero"/></g><g clip-path="url(#857de54249)"><path fill="#00d7ff" d="M 42.515625 54.179688 C 30.339844 41.992188 9.632812 50.511719 9.34375 67.636719 C 9.34375 67.636719 79.902344 134.46875 68.683594 145.363281 L 87.394531 126.628906 C 87.84375 126.179688 88.273438 125.707031 88.675781 125.214844 C 89.078125 124.722656 89.457031 124.210938 89.8125 123.679688 C 90.167969 123.148438 90.492188 122.605469 90.792969 122.042969 C 91.09375 121.480469 91.363281 120.90625 91.609375 120.316406 C 91.851562 119.726562 92.066406 119.128906 92.25 118.519531 C 92.4375 117.90625 92.589844 117.289062 92.714844 116.664062 C 92.839844 116.039062 92.933594 115.410156 92.996094 114.777344 C 93.058594 114.140625 93.089844 113.507812 93.089844 112.867188 C 93.089844 112.230469 93.058594 111.59375 92.996094 110.960938 C 92.933594 110.328125 92.839844 109.699219 92.714844 109.070312 C 92.589844 108.445312 92.4375 107.828125 92.25 107.21875 C 92.066406 106.609375 91.851562 106.011719 91.609375 105.421875 C 91.363281 104.832031 91.09375 104.257812 90.792969 103.695312 C 90.492188 103.132812 90.167969 102.585938 89.8125 102.058594 C 89.457031 101.527344 89.078125 101.015625 88.675781 100.523438 C 88.273438 100.03125 87.84375 99.558594 87.394531 99.109375 Z M 42.515625 54.179688 " fill-opacity="1" fill-rule="nonzero"/></g><g clip-path="url(#a709d7d335)"><path fill="#590696" d="M 148.835938 60.546875 C 148.835938 61.378906 148.753906 62.207031 148.589844 63.027344 C 148.429688 63.84375 148.1875 64.640625 147.867188 65.414062 C 147.546875 66.183594 147.15625 66.917969 146.695312 67.609375 C 146.230469 68.304688 145.703125 68.949219 145.113281 69.539062 C 144.523438 70.128906 143.882812 70.65625 143.1875 71.121094 C 142.496094 71.582031 141.761719 71.976562 140.992188 72.296875 C 140.222656 72.613281 139.425781 72.855469 138.609375 73.019531 C 137.789062 73.183594 136.964844 73.261719 136.128906 73.261719 C 135.296875 73.261719 134.46875 73.183594 133.652344 73.019531 C 132.832031 72.855469 132.039062 72.613281 131.269531 72.296875 C 130.496094 71.976562 129.765625 71.582031 129.070312 71.121094 C 128.378906 70.65625 127.738281 70.128906 127.148438 69.539062 C 126.558594 68.949219 126.03125 68.304688 125.566406 67.609375 C 125.101562 66.917969 124.710938 66.183594 124.394531 65.414062 C 124.074219 64.640625 123.832031 63.84375 123.667969 63.027344 C 123.507812 62.207031 123.425781 61.378906 123.425781 60.546875 C 123.425781 59.710938 123.507812 58.882812 123.667969 58.0625 C 123.832031 57.246094 124.074219 56.449219 124.394531 55.679688 C 124.710938 54.90625 125.101562 54.171875 125.566406 53.480469 C 126.03125 52.785156 126.558594 52.140625 127.148438 51.550781 C 127.738281 50.960938 128.378906 50.433594 129.070312 49.96875 C 129.765625 49.507812 130.496094 49.113281 131.269531 48.796875 C 132.039062 48.476562 132.832031 48.234375 133.652344 48.070312 C 134.46875 47.910156 135.296875 47.828125 136.128906 47.828125 C 136.964844 47.828125 137.789062 47.910156 138.609375 48.070312 C 139.425781 48.234375 140.222656 48.476562 140.992188 48.796875 C 141.761719 49.113281 142.496094 49.507812 143.1875 49.96875 C 143.882812 50.433594 144.523438 50.960938 145.113281 51.550781 C 145.703125 52.140625 146.230469 52.785156 146.695312 53.480469 C 147.15625 54.171875 147.546875 54.90625 147.867188 55.679688 C 148.1875 56.449219 148.429688 57.246094 148.589844 58.0625 C 148.753906 58.882812 148.835938 59.710938 148.835938 60.546875 Z M 148.835938 60.546875 " fill-opacity="1" fill-rule="nonzero"/><path fill="#590696" d="M 148.835938 60.546875 C 148.835938 61.378906 148.753906 62.207031 148.589844 63.027344 C 148.429688 63.84375 148.1875 64.640625 147.867188 65.414062 C 147.546875 66.183594 147.15625 66.917969 146.695312 67.609375 C 146.230469 68.304688 145.703125 68.949219 145.113281 69.539062 C 144.523438 70.128906 143.882812 70.65625 143.1875 71.121094 C 142.496094 71.582031 141.761719 71.976562 140.992188 72.296875 C 140.222656 72.613281 139.425781 72.855469 138.609375 73.019531 C 137.789062 73.183594 136.964844 73.261719 136.128906 73.261719 C 135.296875 73.261719 134.46875 73.183594 133.652344 73.019531 C 132.832031 72.855469 132.039062 72.613281 131.269531 72.296875 C 130.496094 71.976562 129.765625 71.582031 129.070312 71.121094 C 128.378906 70.65625 127.738281 70.128906 127.148438 69.539062 C 126.558594 68.949219 126.03125 68.304688 125.566406 67.609375 C 125.101562 66.917969 124.710938 66.183594 124.394531 65.414062 C 124.074219 64.640625 123.832031 63.84375 123.667969 63.027344 C 123.507812 62.207031 123.425781 61.378906 123.425781 60.546875 C 123.425781 59.710938 123.507812 58.882812 123.667969 58.0625 C 123.832031 57.246094 124.074219 56.449219 124.394531 55.679688 C 124.710938 54.90625 125.101562 54.171875 125.566406 53.480469 C 126.03125 52.785156 126.558594 52.140625 127.148438 51.550781 C 127.738281 50.960938 128.378906 50.433594 129.070312 49.96875 C 129.765625 49.507812 130.496094 49.113281 131.269531 48.796875 C 132.039062 48.476562 132.832031 48.234375 133.652344 48.070312 C 134.46875 47.910156 135.296875 47.828125 136.128906 47.828125 C 136.964844 47.828125 137.789062 47.910156 138.609375 48.070312 C 139.425781 48.234375 140.222656 48.476562 140.992188 48.796875 C 141.761719 49.113281 142.496094 49.507812 143.1875 49.96875 C 143.882812 50.433594 144.523438 50.960938 145.113281 51.550781 C 145.703125 52.140625 146.230469 52.785156 146.695312 53.480469 C 147.15625 54.171875 147.546875 54.90625 147.867188 55.679688 C 148.1875 56.449219 148.429688 57.246094 148.589844 58.0625 C 148.753906 58.882812 148.835938 59.710938 148.835938 60.546875 Z M 148.835938 60.546875 " fill-opacity="1" fill-rule="nonzero"/></g><g clip-path="url(#37f510d8ef)"><path fill="#0096ff" d="M 143.136719 99.179688 L 98.296875 54.289062 C 86.257812 42.230469 54.175781 56.214844 65.15625 67.207031 L 97.398438 99.496094 C 97.847656 99.949219 98.277344 100.417969 98.679688 100.910156 C 99.085938 101.402344 99.464844 101.914062 99.816406 102.445312 C 100.171875 102.972656 100.5 103.519531 100.800781 104.082031 C 101.097656 104.644531 101.371094 105.21875 101.613281 105.808594 C 101.859375 106.394531 102.074219 106.996094 102.257812 107.605469 C 102.441406 108.214844 102.597656 108.832031 102.722656 109.457031 C 102.847656 110.082031 102.941406 110.710938 103.003906 111.347656 C 103.0625 111.980469 103.09375 112.617188 103.09375 113.253906 C 103.09375 113.890625 103.0625 114.527344 103.003906 115.160156 C 102.941406 115.792969 102.847656 116.421875 102.722656 117.046875 C 102.597656 117.671875 102.441406 118.289062 102.257812 118.902344 C 102.074219 119.511719 101.859375 120.109375 101.613281 120.699219 C 101.371094 121.285156 101.097656 121.863281 100.800781 122.425781 C 100.5 122.984375 100.171875 123.53125 99.816406 124.0625 C 99.464844 124.589844 99.085938 125.101562 98.679688 125.59375 C 98.277344 126.085938 97.847656 126.558594 97.398438 127.007812 L 65.175781 159.277344 C 55.351562 169.101562 86.378906 183.597656 98.296875 171.667969 L 143.136719 126.777344 C 143.589844 126.328125 144.019531 125.855469 144.425781 125.363281 C 144.832031 124.867188 145.210938 124.355469 145.570312 123.824219 C 145.925781 123.292969 146.253906 122.746094 146.554688 122.183594 C 146.859375 121.621094 147.132812 121.042969 147.378906 120.453125 C 147.625 119.859375 147.839844 119.257812 148.023438 118.648438 C 148.210938 118.035156 148.367188 117.417969 148.492188 116.789062 C 148.617188 116.160156 148.710938 115.53125 148.773438 114.894531 C 148.835938 114.257812 148.867188 113.617188 148.867188 112.976562 C 148.867188 112.339844 148.835938 111.699219 148.773438 111.0625 C 148.710938 110.425781 148.617188 109.796875 148.492188 109.167969 C 148.367188 108.539062 148.210938 107.921875 148.023438 107.308594 C 147.839844 106.695312 147.625 106.097656 147.378906 105.503906 C 147.132812 104.914062 146.859375 104.335938 146.554688 103.773438 C 146.253906 103.210938 145.925781 102.664062 145.570312 102.132812 C 145.210938 101.601562 144.832031 101.089844 144.425781 100.59375 C 144.019531 100.101562 143.589844 99.628906 143.136719 99.179688 Z M 143.136719 99.179688 " fill-opacity="1" fill-rule="nonzero"/></g><g clip-path="url(#bf4be2f14b)"><path fill="#5800ff" d="M 143.136719 99.179688 L 98.296875 54.289062 C 86.257812 42.230469 54.175781 56.214844 65.15625 67.207031 L 97.398438 99.496094 C 98.957031 101.054688 100.210938 102.824219 101.164062 104.808594 C 102.117188 106.792969 102.714844 108.878906 102.960938 111.066406 C 114.070312 124.125 123.304688 136.804688 125.230469 144.703125 L 143.164062 126.75 C 143.617188 126.296875 144.042969 125.824219 144.449219 125.332031 C 144.855469 124.835938 145.234375 124.324219 145.589844 123.792969 C 145.945312 123.261719 146.273438 122.714844 146.574219 122.152344 C 146.875 121.589844 147.144531 121.011719 147.390625 120.421875 C 147.632812 119.832031 147.847656 119.230469 148.035156 118.621094 C 148.21875 118.007812 148.375 117.390625 148.496094 116.761719 C 148.621094 116.136719 148.714844 115.503906 148.777344 114.871094 C 148.839844 114.234375 148.867188 113.597656 148.867188 112.957031 C 148.867188 112.320312 148.835938 111.679688 148.773438 111.046875 C 148.707031 110.410156 148.613281 109.777344 148.488281 109.152344 C 148.363281 108.527344 148.207031 107.90625 148.019531 107.296875 C 147.835938 106.6875 147.621094 106.085938 147.375 105.496094 C 147.128906 104.90625 146.855469 104.328125 146.554688 103.765625 C 146.25 103.203125 145.921875 102.65625 145.566406 102.128906 C 145.210938 101.597656 144.828125 101.085938 144.421875 100.59375 C 144.015625 100.101562 143.585938 99.628906 143.136719 99.179688 Z M 143.136719 99.179688 " fill-opacity="1" fill-rule="nonzero"/></g><g fill="#231f20" fill-opacity="1"><g transform="translate(158.812054, 145.315576)"><g><path d="M 45.757812 0 L 45.757812 -9.957031 L 18.347656 -9.957031 L 18.347656 -60.714844 L 7.230469 -60.714844 L 7.230469 0 Z M 45.757812 0 "/></g></g></g><g fill="#231f20" fill-opacity="1"><g transform="translate(206.353217, 145.315576)"><g><path d="M 9.910156 15.667969 C 20.089844 15.667969 24.730469 12.679688 30.132812 -1.027344 L 48.035156 -45.894531 L 36.519531 -45.847656 L 25.894531 -18.082031 L 24.6875 -13.394531 L 23.527344 -18.125 L 12.722656 -45.894531 L 1.339844 -45.894531 L 18.929688 -2.144531 L 18.394531 -0.582031 C 16.472656 4.464844 14.644531 6.742188 9.820312 6.742188 L 2.1875 6.742188 L 2.1875 15.667969 Z M 9.910156 15.667969 "/></g></g></g><g fill="#231f20" fill-opacity="1"><g transform="translate(254.787173, 145.315576)"><g><path d="M 27.367188 17.410156 C 42.945312 17.410156 51.472656 7.632812 51.472656 -5.269531 L 51.472656 -45.894531 L 41.207031 -45.894531 L 41.207031 -38.082031 C 38.792969 -42.8125 33.125 -47.277344 24.910156 -47.277344 C 12.144531 -47.277344 3.082031 -36.339844 3.082031 -23.882812 C 3.082031 -11.382812 12.230469 -1.117188 25.269531 -1.117188 C 32.097656 -1.117188 38.035156 -3.792969 41.160156 -9.820312 L 41.160156 -5.132812 C 41.160156 2.054688 37.320312 8.304688 27.320312 8.304688 C 19.152344 8.304688 16.070312 4.777344 15.132812 -0.0429688 L 4.957031 -0.0429688 C 5.269531 8.660156 11.695312 17.410156 27.367188 17.410156 Z M 27.277344 -10.492188 C 19.6875 -10.492188 13.792969 -16.160156 13.792969 -23.929688 C 13.792969 -31.832031 19.6875 -37.277344 27.277344 -37.277344 C 34.867188 -37.277344 40.757812 -31.070312 40.757812 -23.929688 C 40.757812 -16.605469 34.820312 -10.492188 27.277344 -10.492188 Z M 27.277344 -10.492188 "/></g></g></g><g fill="#231f20" fill-opacity="1"><g transform="translate(312.595443, 145.315576)"><g><path d="M 11.652344 -53.035156 C 16.027344 -53.035156 18.480469 -55.757812 18.480469 -59.242188 C 18.480469 -62.589844 16.027344 -65.402344 11.695312 -65.402344 C 7.457031 -65.402344 5 -62.589844 5 -59.242188 C 5 -55.804688 7.5 -53.035156 11.652344 -53.035156 Z M 17.144531 0 L 17.144531 -45.894531 L 6.339844 -45.894531 L 6.339844 0 Z M 17.144531 0 "/></g></g></g></svg>